<svg xmlns="http://www.w3.org/2000/svg" width="373.15" height="261.893" viewBox="0 0 373.15 261.893">
  <g id="developer" transform="translate(0 0)">
    <path id="Path_18" data-name="Path 18" d="M900.2,740.123c-2.422,9.223-10.909,14.987-10.909,14.987s-4.56-9.19-2.138-18.414,10.909-14.987,10.909-14.987S902.623,730.9,900.2,740.123Z" transform="translate(-600.538 -496.541)" fill="#ba8a17"/>
    <path id="Path_19" data-name="Path 19" d="M901.312,755.362c-6.784,6.7-7.543,16.933-7.543,16.933s10.24-.635,17.023-7.337,7.543-16.933,7.543-16.933S908.1,748.659,901.312,755.362Z" transform="translate(-605.323 -513.731)" fill="#d8a11f"/>
    <path id="Path_20" data-name="Path 20" d="M185.215,646.467H197.99l31.483-12.319s22.357-9.125,20.532,8.213-5.019,40.608-5.019,40.608-10.038-4.563-15.513-3.194-1.825-27.833-1.825-27.833-44.715,21.445-48.821,18.707-5.019-21.9-5.019-21.9Z" transform="translate(-135.025 -437.776)" fill="#2f2e41"/>
    <path id="Path_21" data-name="Path 21" d="M185.215,646.467H197.99l31.483-12.319s22.357-9.125,20.532,8.213-5.019,40.608-5.019,40.608-10.038-4.563-15.513-3.194-1.825-27.833-1.825-27.833-44.715,21.445-48.821,18.707-5.019-21.9-5.019-21.9Z" transform="translate(-135.025 -437.776)" opacity="0.1"/>
    <path id="Path_22" data-name="Path 22" d="M243.161,558.82l15.461,22.214,36.045,30.114s33.308,7.757,28.745,13.232-32.4-5.475-32.4-5.475-41.521-30.114-42.89-32.4S231.7,562.783,231.7,562.783Z" transform="translate(-172.843 -390.138)" fill="#bda282"/>
    <path id="Path_24" data-name="Path 24" d="M209.918,507.092l10.038,19.62s-2.281,9.582-5.932,10.494-19.163-11.863-19.163-11.863Z" transform="translate(-148.777 -356.348)" fill="#d0cde1"/>
    <path id="Path_25" data-name="Path 25" d="M209.918,507.092l10.038,19.62s-2.281,9.582-5.932,10.494-19.163-11.863-19.163-11.863Z" transform="translate(-148.777 -356.348)" opacity="0.1"/>
    <path id="Path_26" data-name="Path 26" d="M565.325,643.8l2.965,12.231a.765.765,0,0,1-.015.413l-13.45,42.033a.764.764,0,0,1-1.487-.147l-1.861-16.374a.764.764,0,0,1,.033-.323l12.346-37.89a.764.764,0,0,1,1.469.057Z" transform="translate(-381.726 -445.269)" fill="#2f2e41"/>
    <path id="Path_27" data-name="Path 27" d="M503.959,575.493l2.737,10.494-11.863,38.327L492.1,612.451Z" transform="translate(-321.45 -375.928)" fill="#f2f2f2"/>
    <path id="Path_28" data-name="Path 28" d="M415.771,772.813c.456,1.369,47.452-.456,47.908-.912a9.907,9.907,0,0,0,1-1.825c.429-.913.821-1.825.821-1.825l-1.825-14.774-46.54-1.652s-1.164,12.52-1.4,18.251A13.7,13.7,0,0,0,415.771,772.813Z" transform="translate(-293.034 -516.214)" fill="#2f2e41"/>
    <path id="Path_29" data-name="Path 29" d="M438.033,689.965l.912,12.775H418.413V689.965Z" transform="translate(-273.319 -450.704)" opacity="0.1"/>
    <path id="Path_30" data-name="Path 30" d="M376.33,701.76l.122-.024-.579,5.5H364.467V701.76Z" transform="translate(-238.08 -458.393)" opacity="0.1"/>
    <path id="Path_31" data-name="Path 31" d="M415.771,807.193c.456,1.369,47.452-.456,47.908-.913a9.908,9.908,0,0,0,1-1.825H415.74A13.7,13.7,0,0,0,415.771,807.193Z" transform="translate(-293.034 -550.593)" opacity="0.1"/>
    <circle id="Ellipse_42" data-name="Ellipse 42" cx="20.532" cy="20.532" r="20.532" transform="translate(47.452 103.292)" fill="#bda282"/>
    <path id="Path_32" data-name="Path 32" d="M195.195,448.778s-6.844,11.863-8.213,18.251-20.532-12.776-20.532-12.776l-2.509-6.616s18.023-8.441,16.654-15.285S195.195,448.778,195.195,448.778Z" transform="translate(-128.579 -306.703)" fill="#bda282"/>
    <path id="Path_33" data-name="Path 33" d="M223.34,584.722l18.707,24.639,44.715,33.308s32.4,6.844,25.095,11.863-28.289-4.563-28.289-4.563-45.171-24.182-54.753-34.22-27.376-26.92-27.376-26.92Z" transform="translate(-153.074 -407.058)" fill="#bda282"/>
    <path id="Path_34" data-name="Path 34" d="M115.734,689.89l5.475,8.669,32.677-10.28a25.692,25.692,0,0,1,21.391,2.581c5.7,3.593,9.354,9.3,1.141,17.738-16.426,16.882-27.376,7.757-27.376,7.757s-55.209,26.008-64.334,13.232-9.582-19.163-9.582-19.163S110.259,688.521,115.734,689.89Z" transform="translate(-70.563 -473.899)" fill="#2f2e41"/>
    <path id="Path_35" data-name="Path 35" d="M299.346,774.352s14.6,9.582-2.738,14.144-30.114-1.825-30.114-1.825-15.057,0-15.057-7.757,5.019-8.669,5.019-8.669l15.513,2.281S290.677,767.508,299.346,774.352Z" transform="translate(-185.735 -528.246)" fill="#d0cde1"/>
    <path id="Path_36" data-name="Path 36" d="M223.695,367.709a15.31,15.31,0,0,0,4.3,1.541,3.928,3.928,0,0,0,3.968-1.7,5.338,5.338,0,0,0,.451-2.414c.055-2.505-.126-5.214-1.714-7.153-1.01-1.234-2.485-2.012-3.531-3.216a15.2,15.2,0,0,1-1.785-2.917c-2.034-3.82-5.046-7.492-9.232-8.594a20.019,20.019,0,0,0-5.389-.412l-10.541.149a18.353,18.353,0,0,0-5.071.546c-3.393,1.026-5.863,3.879-8.126,6.608a41.321,41.321,0,0,0-4.66,6.432,22.568,22.568,0,0,0-2.675,11.057,10.346,10.346,0,0,0,.379,2.926,16.238,16.238,0,0,0,1.15,2.526c1.977,3.883,3.151,8.732.924,12.478,3.867-1.58,7.693-3.651,10.244-6.959,1.141-1.48,2.036-3.212,3.557-4.3s4-1.18,4.975.414a4.459,4.459,0,0,1,.5,2.088,9.572,9.572,0,0,0,.577,3.524,2.641,2.641,0,0,0,2.869,1.637c1.987-.56,1.8-3.609,3.326-4.994,1.162-1.052,2.955-.851,4.448-1.328a6.6,6.6,0,0,0,3.788-3.731c.565-1.268.557-4.585,1.627-5.272C219.4,365.786,222.452,367.155,223.695,367.709Z" transform="translate(-138.867 -249.05)" fill="#625234"/>
    <path id="Path_37" data-name="Path 37" d="M95.7,472.217a5.415,5.415,0,0,1,2.819.007c2.929.786,9.495,2.868,10.9,6.035,1.825,4.106,8.213,10.494,8.213,10.494s8.669,8.669,6.844,14.6-8.669,12.776-8.669,12.776,1.825,28.289-7.3,35.589S95.732,554,95.732,560.845,67.443,589.134,61.968,575.9c0,0,2.738-24.639,1.825-33.308C62.894,534.05,64.21,480.742,95.7,472.217Z" transform="translate(-61.968 -333.447)" fill="#d0cde1"/>
    <path id="Path_38" data-name="Path 38" d="M161.316,503.519s27.833,20.532,22.814,29.2c0,0-16.882,8.213-20.532,7.757s-17.795-16.426-21.445-17.795S136.678,496.675,161.316,503.519Z" transform="translate(-112.951 -353.231)" fill="#d0cde1"/>
    <circle id="Ellipse_43" data-name="Ellipse 43" cx="22.54" cy="22.54" r="22.54" transform="translate(150.175 59.804)" fill="#f2f2f2"/>
    <rect id="Rectangle_7" data-name="Rectangle 7" width="125.755" height="25.874" transform="translate(223.949 31.926)" fill="#d8a11f"/>
    <path id="Path_40" data-name="Path 40" d="M696.747,224.85H462.487V72.386H696.748Zm-233.7-.556H696.191V72.942H463.044Z" transform="translate(-323.598 -72.386)" fill="#f2f2f2"/>
    <rect id="Rectangle_8" data-name="Rectangle 8" width="233.704" height="0.556" transform="translate(139.167 8.44)" fill="#fff"/>
    <path id="Path_41" data-name="Path 41" d="M475.945,83.256a2.226,2.226,0,1,1,2.226-2.226A2.226,2.226,0,0,1,475.945,83.256Zm0-3.9a1.669,1.669,0,1,0,1.669,1.669,1.669,1.669,0,0,0-1.669-1.669Z" transform="translate(-330.935 -76.579)" fill="#d8a11f"/>
    <path id="Path_42" data-name="Path 42" d="M495.2,83.256a2.226,2.226,0,1,1,2.226-2.226A2.226,2.226,0,0,1,495.2,83.256Zm0-3.9a1.669,1.669,0,1,0,1.669,1.669,1.669,1.669,0,0,0-1.669-1.669Z" transform="translate(-343.513 -76.579)" fill="#d8a11f"/>
    <path id="Path_43" data-name="Path 43" d="M514.456,83.256a2.226,2.226,0,1,1,2.226-2.226A2.226,2.226,0,0,1,514.456,83.256Zm0-3.9a1.669,1.669,0,1,0,1.669,1.669,1.669,1.669,0,0,0-1.669-1.669Z" transform="translate(-356.091 -76.579)" fill="#d8a11f"/>
    <rect id="Rectangle_9" data-name="Rectangle 9" width="0.556" height="143.684" transform="translate(212.263 8.718)" fill="#fff"/>
    <rect id="Rectangle_10" data-name="Rectangle 10" width="40.898" height="5.564" transform="translate(238.834 79.362)" fill="#f2f2f2"/>
    <rect id="Rectangle_11" data-name="Rectangle 11" width="40.898" height="5.564" transform="translate(303.103 79.362)" fill="#f2f2f2"/>
    <rect id="Rectangle_12" data-name="Rectangle 12" width="40.898" height="5.564" transform="translate(238.834 122.486)" fill="#f2f2f2"/>
    <rect id="Rectangle_13" data-name="Rectangle 13" width="105.167" height="5.564" transform="translate(238.973 100.368)" fill="#f2f2f2"/>
    <path id="Path_47" data-name="Path 47" d="M983.1,298.541H941.651V292.42H983.1Zm-40.9-.556h40.342v-5.008h-40.34Z" transform="translate(-636.601 -216.118)" fill="#3f3d56"/>
    <rect id="Rectangle_14" data-name="Rectangle 14" width="98.137" height="0.694" transform="translate(259.408 258.158)" fill="#3f3d56"/>
  </g>
</svg>
