<?xml version="1.0" encoding="UTF-8" standalone="no"?>
<!DOCTYPE svg PUBLIC "-//W3C//DTD SVG 1.1//EN" "http://www.w3.org/Graphics/SVG/1.1/DTD/svg11.dtd">
<svg width="100%" height="100%" viewBox="0 0 1065 1000" version="1.1" xmlns="http://www.w3.org/2000/svg" xmlns:xlink="http://www.w3.org/1999/xlink" xml:space="preserve" xmlns:serif="http://www.serif.com/" style="fill-rule:evenodd;clip-rule:evenodd;stroke-miterlimit:10;">
    <g>
        <path d="M783.94,225.59C764.148,207.546 742.165,192.061 718.51,179.5C693.288,166.207 666.461,156.211 638.69,149.76C609.603,142.813 577.22,139.34 541.54,139.34C488.66,139.34 439.917,148.593 395.31,167.1C350.703,185.607 312.203,211.22 279.81,243.94C276.117,247.66 272.517,251.46 269.01,255.34L337.45,307.56C390.078,252.609 462.952,221.498 539.039,221.498C629.033,221.498 713.685,265.02 766.05,338.21L836,284.09C820.705,262.851 803.259,243.247 783.94,225.59Z" style="fill:none;fill-rule:nonzero;stroke:url(#_Linear1);stroke-width:14px;"/>
        <path d="M840.94,704.45C824.64,726.681 806.582,747.568 786.94,766.91C767.113,786.329 744.77,803.001 720.51,816.48C695.73,830.36 667.973,841.27 637.24,849.21C606.507,857.15 571.967,861.113 533.62,861.1C484.04,861.1 437.44,852.177 393.82,834.33C350.2,816.483 312.363,791.53 280.31,759.47C273.643,752.803 267.283,745.903 261.23,738.77L330.38,686C383.329,745.575 459.335,779.71 539.039,779.71C632.457,779.71 719.895,732.818 771.58,655L840.94,704.45Z" style="fill:none;fill-rule:nonzero;stroke:url(#_Linear2);stroke-width:14px;"/>
        <path d="M771.58,655C719.902,732.832 632.458,779.736 539.032,779.736C385.901,779.736 259.892,653.727 259.892,500.596C259.892,347.464 385.901,221.456 539.032,221.456C629.028,221.456 713.683,264.978 766.05,338.17L691.24,396.08C671.427,370.967 649.617,351.137 625.81,336.59C602.003,322.043 573.253,314.777 539.56,314.79C515.1,314.79 492.793,319.58 472.64,329.16C452.796,338.523 435.078,351.851 420.58,368.32C420.12,368.84 419.65,369.38 419.21,369.92C405.31,386.113 394.373,405.077 386.4,426.81C378.054,449.683 373.854,473.862 374,498.21L374,500.21C373.825,525.039 378.023,549.706 386.4,573.08C392.708,590.947 401.705,607.747 413.08,622.9C415.47,626.06 417.98,629.11 420.58,632.07C435.067,648.554 452.788,661.887 472.64,671.24C492.793,680.82 515.1,685.61 539.56,685.61C556.111,685.75 572.61,683.733 588.64,679.61C602.971,675.872 616.668,670.024 629.28,662.26C641.71,654.529 653.34,645.582 664,635.55C675.394,624.788 686.149,613.368 696.21,601.35L771.58,655Z" style="fill:none;fill-rule:nonzero;stroke:url(#_Linear3);stroke-width:14px;"/>
    </g>
    <defs>
        <linearGradient id="_Linear1" x1="0" y1="0" x2="1" y2="0" gradientUnits="userSpaceOnUse" gradientTransform="matrix(231.187,651.811,-809.66,287.174,473.263,135.318)"><stop offset="0" style="stop-color:rgb(255,138,0);stop-opacity:1"/><stop offset="1" style="stop-color:rgb(255,111,0);stop-opacity:1"/></linearGradient>
        <linearGradient id="_Linear2" x1="0" y1="0" x2="1" y2="0" gradientUnits="userSpaceOnUse" gradientTransform="matrix(231.187,651.811,-809.66,287.174,473.263,135.318)"><stop offset="0" style="stop-color:rgb(255,138,0);stop-opacity:1"/><stop offset="1" style="stop-color:rgb(255,111,0);stop-opacity:1"/></linearGradient>
        <linearGradient id="_Linear3" x1="0" y1="0" x2="1" y2="0" gradientUnits="userSpaceOnUse" gradientTransform="matrix(231.187,651.811,-809.66,287.174,473.263,135.318)"><stop offset="0" style="stop-color:rgb(255,138,0);stop-opacity:1"/><stop offset="1" style="stop-color:rgb(255,111,0);stop-opacity:1"/></linearGradient>
    </defs>
</svg>
